<mxfile host="app.diagrams.net" modified="2023-04-19T15:40:49.847Z" agent="Mozilla/5.0 (Macintosh; Intel Mac OS X 10_15_7) AppleWebKit/537.36 (KHTML, like Gecko) Chrome/111.0.0.0 Safari/537.36" version="21.2.0" etag="xrnEwflPwoau9o9Y6q5r" type="github">
  <diagram name="Page-1" id="QUdfdSPP54BUuVl2uPcU">
    <mxGraphModel>
      <root>
        <mxCell id="0" />
        <mxCell id="1" parent="0" />
      </root>
    </mxGraphModel>
  </diagram>
</mxfile>
